{"title":"Man in Black - Johnny Cash Live in Denmark 1971","uid":9162760,"size":838827859,"categoryP":"video","categoryS":"music_videos","magnet":"?xt=urn:btih:41328d50f9b18c77be79d2af3a65e2fc6ccbe42d&amp;dn=Man+in+Black+-+Johnny+Cash+Live+in+Denmark+1971&amp;tr=udp%3A%2F%2Ftracker.openbittorrent.com%3A80&amp;tr=udp%3A%2F%2Fopen.demonii.com%3A1337&amp;tr=udp%3A%2F%2Ftracker.coppersurfer.tk%3A6969&amp;tr=udp%3A%2F%2Fexodus.desync.com%3A6969","seeders":3,"leechers":0,"uploader":"user101966","files":2,"time":1383898895,"description":"Performances:\n\n 1. A Boy Named Sue (Johnny Cash)\n 2. Sunday Mornin' Comin' Down (Johnny Cash)\n 3. I Walk The Line (Johnny Cash)\n 4. Blue Suede Shoes (Carl Perkins)\n 5. Matchbox (Carl Perkins)\n 6. Me and Bobby McGee (Johnny Cash)\n 7. Guess Things Happen That Way (Johnny Cash)\n 8. Bed Of Roses (Statler Brothers)\n 9. Flowers On The Wall (Statler Brothers)\n10. Folsom Prison Blues (Johnny Cash)\n11. Darlin' Companion (Johnny Cash with June Carter)\n12. If I Were A Carpenter (Johnny Cash with June Carter)\n13. Help Me Make It Through The Night (Johnny Cash with June Carter)\n14. Man In Black (Johnny Cash)\n15. A Song To Mama (Johnny Cash with the Carter Family)\n16. No Need To Worry (Entire cast/crew)\n17. Rock of Ages (Entire cast/crew)\n18. Children, Go Where I Send Thee (Entire cast/crew)\n \n============================== Video Info ================================\nGeneral\nComplete name                            : Man in Black - Johnny Cash Live in Denmark 1971.avi\nFormat                                   : AVI\nFormat/Info                              : Audio Video Interleave\nFile size                                : 800 MiB\nDuration                                 : 56mn 44s\nOverall bit rate mode                    : Variable\nOverall bit rate                         : 1 971 Kbps\nWriting application                      : VirtualDubMod 1.5.4.1 (build 2178/release)\nWriting library                          : VirtualDubMod build 2178/release\n\nVideo\nID                                       : 0\nFormat                                   : MPEG-4 Visual\nFormat profile                           : Advanced Simple@L5\nFormat settings, BVOP                    : 1\nFormat settings, QPel                    : No\nFormat settings, GMC                     : No warppoints\nFormat settings, Matrix                  : Custom\nCodec ID                                 : XVID\nCodec ID/Hint                            : XviD\nDuration                                 : 56mn 44s\nBit rate                                 : 1 826 Kbps\nWidth                                    : 704 pixels\nHeight                                   : 528 pixels\nDisplay aspect ratio                     : 4:3\nFrame rate                               : 25.000 fps\nColor space                              : YUV\nChroma subsampling                       : 4:2:0\nBit depth                                : 8 bits\nScan type                                : Progressive\nCompression mode                         : Lossy\nBits/(Pixel*Frame)                       : 0.197\nStream size                              : 741 MiB (93%)\nWriting library                          : XviD 64\n\nAudio\nID                                       : 1\nFormat                                   : MPEG Audio\nFormat version                           : Version 1\nFormat profile                           : Layer 3\nMode                                     : Joint stereo\nMode extension                           : MS Stereo\nCodec ID                                 : 55\nCodec ID/Hint                            : MP3\nDuration                                 : 56mn 43s\nBit rate mode                            : Variable\nBit rate                                 : 132 Kbps\nNominal bit rate                         : 192 Kbps\nChannel(s)                               : 2 channels\nSampling rate                            : 48.0 KHz\nCompression mode                         : Lossy\nStream size                              : 53.7 MiB (7%)\nAlignment                                : Aligned on interleaves\nInterleave, duration                     : 24 ms (0.60 video frame)\nInterleave, preload duration             : 139 ms\nWriting library                          : LAME3.98r\nEncoding settings                        : -m j -V 4 -q 2 -lowpass 18.6 --abr 192\nLanguage                                 : English\n","torrent":{"xt":"urn:btih:41328d50f9b18c77be79d2af3a65e2fc6ccbe42d","amp;dn":"Man+in+Black+-+Johnny+Cash+Live+in+Denmark+1971","amp;tr":["udp%3A%2F%2Ftracker.openbittorrent.com%3A80","udp%3A%2F%2Fopen.demonii.com%3A1337","udp%3A%2F%2Ftracker.coppersurfer.tk%3A6969","udp%3A%2F%2Fexodus.desync.com%3A6969"],"infoHash":"41328d50f9b18c77be79d2af3a65e2fc6ccbe42d","infoHashBuffer":{"type":"Buffer","data":[65,50,141,80,249,177,140,119,190,121,210,175,58,101,226,252,108,203,228,45]},"announce":[],"urlList":[]}}